<svg width="53" height="60" viewBox="0 0 53 60" fill="none" xmlns="http://www.w3.org/2000/svg">
<ellipse rx="20.1093" ry="20.9372" transform="matrix(0.891392 0.453234 -0.408267 0.912863 26.473 31.6869)" fill="#008ECC"/>
<path d="M27.9943 58.9304C33.1892 47.4601 43.5439 12.7973 33.1893 22.1236C26.5994 28.059 27.9941 29.95 18.2754 29.0919C8.5566 28.2338 25.9485 38.705 27.9943 58.9304Z" fill="white"/>
<ellipse rx="7.95198" ry="9.54904" transform="matrix(0.708166 0.706046 -0.659341 0.751844 22.1399 13.1435)" fill="white"/>
<path d="M17.6028 6.86927C17.7568 6.71509 17.9616 6.62986 18.1742 6.63155C18.3867 6.63324 18.5903 6.72173 18.742 6.87834C18.8937 7.03494 18.9816 7.24743 18.9872 7.47095C18.9928 7.69447 18.9157 7.91154 18.7721 8.07636L14.412 13.8129C14.337 13.8979 14.2466 13.9661 14.146 14.0134C14.0454 14.0607 13.9368 14.0862 13.8266 14.0884C13.7164 14.0905 13.607 14.0693 13.5048 14.0259C13.4026 13.9825 13.3098 13.9179 13.2319 13.8359L10.3404 10.7941C10.2599 10.7151 10.1953 10.6199 10.1505 10.5142C10.1057 10.4084 10.0817 10.2942 10.0797 10.1785C10.0778 10.0627 10.098 9.94769 10.1392 9.84033C10.1805 9.73297 10.2418 9.63545 10.3196 9.55357C10.3975 9.4717 10.4902 9.40715 10.5922 9.36379C10.6943 9.32043 10.8036 9.29913 10.9136 9.30117C11.0237 9.30321 11.1322 9.32855 11.2327 9.37568C11.3332 9.4228 11.4237 9.49075 11.4988 9.57546L13.787 11.9816L17.581 6.89456C17.5878 6.88568 17.5951 6.87724 17.6028 6.86927V6.86927ZM16.5975 12.7783L17.6028 13.8359C17.6807 13.9177 17.7735 13.9822 17.8756 14.0254C17.9777 14.0687 18.087 14.0899 18.197 14.0878C18.3071 14.0856 18.4156 14.0602 18.516 14.013C18.6165 13.9657 18.707 13.8977 18.7819 13.8129L23.1442 8.07636C23.2225 7.99497 23.2845 7.8978 23.3264 7.79066C23.3682 7.68351 23.3892 7.56858 23.3879 7.45274C23.3866 7.3369 23.3631 7.22252 23.3189 7.11643C23.2747 7.01034 23.2106 6.91472 23.1304 6.83527C23.0503 6.75583 22.9557 6.69419 22.8524 6.65403C22.7491 6.61388 22.6392 6.59604 22.5292 6.60157C22.4192 6.6071 22.3114 6.6359 22.2123 6.68624C22.1131 6.73658 22.0246 6.80743 21.952 6.89456L18.1569 11.9816L17.6269 11.4229L16.5964 12.7783H16.5975Z" fill="#008ECC"/>
</svg>
