<svg width="189" height="60" viewBox="0 0 189 60" fill="none" xmlns="http://www.w3.org/2000/svg">
<ellipse rx="20.1093" ry="20.9372" transform="matrix(0.891392 0.453234 -0.408267 0.912863 26.473 31.6869)" fill="#008ECC"/>
<path d="M27.9943 58.9304C33.1892 47.4601 43.5439 12.7974 33.1893 22.1236C26.5994 28.059 27.9941 29.95 18.2754 29.0919C8.5566 28.2338 25.9485 38.705 27.9943 58.9304Z" fill="white"/>
<ellipse rx="7.95198" ry="9.54904" transform="matrix(0.708166 0.706046 -0.659341 0.751844 22.1399 13.1435)" fill="white"/>
<path d="M17.6028 6.86927C17.7568 6.71509 17.9616 6.62986 18.1742 6.63155C18.3867 6.63324 18.5903 6.72173 18.742 6.87834C18.8937 7.03494 18.9816 7.24743 18.9872 7.47095C18.9928 7.69447 18.9157 7.91154 18.7721 8.07636L14.412 13.8129C14.337 13.8979 14.2466 13.9661 14.146 14.0134C14.0454 14.0607 13.9368 14.0862 13.8266 14.0884C13.7164 14.0905 13.607 14.0693 13.5048 14.0259C13.4026 13.9825 13.3098 13.9179 13.2319 13.8359L10.3404 10.7941C10.2599 10.7151 10.1953 10.6199 10.1505 10.5142C10.1057 10.4084 10.0817 10.2942 10.0797 10.1785C10.0778 10.0627 10.098 9.94769 10.1392 9.84033C10.1805 9.73297 10.2418 9.63545 10.3196 9.55357C10.3975 9.4717 10.4902 9.40715 10.5922 9.36379C10.6943 9.32043 10.8036 9.29913 10.9136 9.30117C11.0237 9.30321 11.1322 9.32855 11.2327 9.37568C11.3332 9.4228 11.4237 9.49075 11.4988 9.57546L13.787 11.9816L17.581 6.89456C17.5878 6.88568 17.5951 6.87724 17.6028 6.86927ZM16.5975 12.7783L17.6028 13.8359C17.6807 13.9177 17.7735 13.9822 17.8756 14.0254C17.9777 14.0687 18.087 14.0899 18.197 14.0878C18.3071 14.0856 18.4156 14.0602 18.516 14.013C18.6165 13.9657 18.707 13.8977 18.7819 13.8129L23.1442 8.07636C23.2225 7.99497 23.2845 7.8978 23.3264 7.79066C23.3682 7.68351 23.3892 7.56858 23.3879 7.45274C23.3866 7.3369 23.3631 7.22252 23.3189 7.11643C23.2747 7.01034 23.2106 6.91472 23.1304 6.83527C23.0503 6.75583 22.9557 6.69419 22.8524 6.65403C22.7491 6.61388 22.6392 6.59604 22.5292 6.60157C22.4192 6.6071 22.3114 6.6359 22.2123 6.68624C22.1131 6.73658 22.0246 6.80743 21.952 6.89456L18.1569 11.9816L17.6269 11.4229L16.5964 12.7783H16.5975Z" fill="#008ECC"/>
<path d="M62.6686 48.6938C60.2595 48.6938 58.381 47.9194 57.0331 46.3707C55.6852 44.8221 55.0112 42.7141 55.0112 40.0469V26.7971H64.1312V39.6598C64.1312 40.3194 64.3033 40.8356 64.6474 41.2085C65.0203 41.5526 65.4935 41.7247 66.0671 41.7247C66.6407 41.7247 67.2286 41.5526 67.8309 41.2085L68.3041 47.1881C67.6731 47.6756 66.8414 48.0485 65.809 48.3066C64.8052 48.5647 63.7584 48.6938 62.6686 48.6938ZM59.5712 23.5707C58.2233 23.5707 57.0761 23.1548 56.1297 22.3231C55.212 21.4628 54.7531 20.416 54.7531 19.1827C54.7531 17.9495 55.2406 16.9171 56.2157 16.0854C57.1908 15.2537 58.3093 14.8378 59.5712 14.8378C60.8905 14.8378 62.0233 15.268 62.9697 16.1284C63.9448 16.9888 64.4324 18.0069 64.4324 19.1827C64.4324 20.4446 63.9448 21.4914 62.9697 22.3231C61.9946 23.1548 60.8618 23.5707 59.5712 23.5707ZM106.318 48.6938C103.88 48.6938 101.987 47.9338 100.639 46.4138C99.32 44.8651 98.6603 42.7571 98.6603 40.09V20.0001L107.737 18.6665V39.4447C107.737 40.2477 107.924 40.8356 108.297 41.2085C108.698 41.5526 109.386 41.7247 110.361 41.7247C111.078 41.7247 111.781 41.5526 112.469 41.2085L112.771 47.2311C110.849 48.2062 108.698 48.6938 106.318 48.6938ZM124.512 48.6938C122.648 48.6938 120.898 48.2062 119.263 47.2311C117.657 46.2273 116.367 44.8794 115.392 43.1873C114.417 41.4666 113.929 39.5594 113.929 37.4658C113.929 35.4009 114.417 33.5367 115.392 31.8733C116.367 30.1813 117.672 28.862 119.306 27.9156C120.941 26.9692 122.676 26.496 124.512 26.496C126.003 26.496 127.38 26.9118 128.642 27.7435C129.932 28.5752 130.907 29.8228 131.567 31.4862V26.496H140.601V48.3496H131.567V44.3488C130.133 47.2455 127.781 48.6938 124.512 48.6938ZM127.308 41.8968C128.455 41.8968 129.43 41.4953 130.233 40.6922C131.065 39.8605 131.509 38.8854 131.567 37.7669V37.4228C131.509 36.2756 131.051 35.3005 130.19 34.4975C129.359 33.6945 128.398 33.293 127.308 33.293C126.103 33.293 125.071 33.7232 124.211 34.5835C123.379 35.4152 122.963 36.419 122.963 37.5949C122.963 38.7994 123.393 39.8175 124.254 40.6492C125.114 41.4809 126.132 41.8968 127.308 41.8968ZM144.958 27.0982H153.605V31.4862C155.268 28.1594 157.907 26.496 161.52 26.496C164.274 26.496 166.425 27.4854 167.973 29.4643C169.551 31.4145 170.339 34.1247 170.339 37.5949V48.3496H161.305V36.6915C161.305 35.4583 161.033 34.5118 160.488 33.8522C159.972 33.1926 159.24 32.8628 158.294 32.8628C157.606 32.8628 156.932 33.0922 156.272 33.5511C155.613 33.9813 155.068 34.6122 154.637 35.4439C154.236 36.2756 154.035 37.222 154.035 38.2832V48.3496H144.958V27.0982Z" fill="#008ECC"/>
<path d="M71.4545 18.7526H82.1232C86.5398 18.7526 89.9527 19.6129 92.3617 21.3337C94.7995 23.0545 96.0184 25.4635 96.0184 28.5609C96.0184 30.5111 95.4161 32.2175 94.2116 33.6801C93.0357 35.1428 91.4153 36.2756 89.3504 37.0786C87.3142 37.853 85.0485 38.2402 82.5534 38.2402H80.7466V48.3496H71.4545V18.7526ZM82.5964 32.2605C84.1164 32.2605 85.2923 31.945 86.124 31.3141C86.9557 30.6832 87.3715 29.7654 87.3715 28.5609C87.3715 27.3564 86.9557 26.453 86.124 25.8507C85.321 25.2484 84.1451 24.9473 82.5964 24.9473H80.7466V32.1745C81.3202 32.2318 81.9368 32.2605 82.5964 32.2605Z" fill="#000080"/>
</svg>
